<svg width="82" height="83" viewBox="0 0 82 83" fill="none" xmlns="http://www.w3.org/2000/svg">
<path d="M81 60C81 57.2386 78.7614 55 76 55H30.3722C28.614 55 27.7114 57.1057 28.9238 58.3791L48.7529 79.2059C50.4516 80.9901 52.8075 82 55.2711 82H76C78.7614 82 81 79.7614 81 77V60Z" fill="#E7FF00" fill-opacity="0.87"/>
<path d="M22 4.57764e-05C24.7614 4.57764e-05 27 2.23862 27 5.00004V50.6278C27 52.386 24.8943 53.2886 23.6209 52.0762L2.79408 32.2471C1.00987 30.5484 0 28.1925 0 25.7289V5.00005C0 2.23862 2.23858 4.57764e-05 5 4.57764e-05H22Z" fill="#E7FF00" fill-opacity="0.87"/>
<path d="M3.51006 49.0419L30.1243 79.6886C31.2487 80.9834 30.3291 83 28.6143 83H2C0.895428 83 0 82.1046 0 81V50.3533C0 48.5028 2.29676 47.6448 3.51006 49.0419Z" fill="#E7FF00" fill-opacity="0.87"/>
<path d="M78.0654 48.9644L33.7966 3.39357C32.5648 2.12552 33.4633 0 35.2312 0H79.5C80.6046 0 81.5 0.89543 81.5 2V47.5709C81.5 49.3667 79.3167 50.2525 78.0654 48.9644Z" fill="#E7FF00" fill-opacity="0.87"/>
</svg>
